<?xml version="1.0" encoding="utf-8"?>
<!-- Generator: Adobe Illustrator 24.0.0, SVG Export Plug-In . SVG Version: 6.00 Build 0)  -->
<svg version="1.1" id="Layer_1" xmlns="http://www.w3.org/2000/svg" xmlns:xlink="http://www.w3.org/1999/xlink" x="0px" y="0px"
	 viewBox="0 0 400 400" style="enable-background:new 0 0 400 400;" xml:space="preserve">
<style type="text/css">
	.st0{fill:none;stroke:#662D91;stroke-miterlimit:10;}
	.st1{fill:none;stroke:#FFFFFF;stroke-miterlimit:10;}
	.st2{opacity:0.56;}
	.st3{fill:#7352A2;}
	.st4{font-family:'MicrosoftYaHeiUILight';}
	.st5{font-size:59.8046px;}
	.st6{fill:#FFFFFF;}
</style>
<g>
	<path d="M273,181.9c0,7.6-7,13.9-9.3,20.7c-2.3,7.1-0.4,16.3-4.7,22.2c-4.3,5.9-13.7,7-19.7,11.3c-5.9,4.3-9.8,12.9-16.8,15.2
		c-6.8,2.2-15-2.4-22.6-2.4c-7.6,0-15.8,4.7-22.6,2.4c-7.1-2.3-10.9-11-16.8-15.2c-5.9-4.3-15.4-5.4-19.7-11.3
		c-4.3-5.9-2.4-15.1-4.7-22.2c-2.2-6.8-9.3-13.2-9.3-20.7c0-7.6,7-13.9,9.3-20.7c2.3-7.1,0.4-16.3,4.7-22.2
		c4.3-5.9,13.7-7,19.7-11.3c5.9-4.3,9.8-12.9,16.8-15.2c6.8-2.2,15,2.4,22.6,2.4c7.6,0,15.8-4.7,22.6-2.4c7.1,2.3,10.9,11,16.8,15.2
		c5.9,4.3,15.4,5.4,19.7,11.3c4.3,5.9,2.4,15.1,4.7,22.2C266,168,273,174.3,273,181.9z"/>
	<path class="st0" d="M273,181.9c0,7.6-7,13.9-9.3,20.7c-2.3,7.1-0.4,16.3-4.7,22.2c-4.3,5.9-13.7,7-19.7,11.3
		c-5.9,4.3-9.8,12.9-16.8,15.2c-6.8,2.2-15-2.4-22.6-2.4c-7.6,0-15.8,4.7-22.6,2.4c-7.1-2.3-10.9-11-16.8-15.2
		c-5.9-4.3-15.4-5.4-19.7-11.3c-4.3-5.9-2.4-15.1-4.7-22.2c-2.2-6.8-9.3-13.2-9.3-20.7c0-7.6,7-13.9,9.3-20.7
		c2.3-7.1,0.4-16.3,4.7-22.2c4.3-5.9,13.7-7,19.7-11.3c5.9-4.3,9.8-12.9,16.8-15.2c6.8-2.2,15,2.4,22.6,2.4c7.6,0,15.8-4.7,22.6-2.4
		c7.1,2.3,10.9,11,16.8,15.2c5.9,4.3,15.4,5.4,19.7,11.3c4.3,5.9,2.4,15.1,4.7,22.2C266,168,273,174.3,273,181.9z"/>
</g>
<circle class="st1" cx="200" cy="181.9" r="48.8"/>
<g>
	<g class="st2">
		<text transform="matrix(1 0 0 1 166.6439 202.6692)" class="st3 st4 st5">AS</text>
	</g>
	<g>
		<text transform="matrix(1 0 0 1 163.6439 199.6692)" class="st6 st4 st5">AS</text>
	</g>
</g>
</svg>
